<?xml version="1.0" encoding="iso-8859-1"?>
<!-- Generator: Adobe Illustrator 19.0.0, SVG Export Plug-In . SVG Version: 6.00 Build 0)  -->
<svg version="1.1" id="Layer_1" xmlns="http://www.w3.org/2000/svg" xmlns:xlink="http://www.w3.org/1999/xlink" x="0px" y="0px"
	 viewBox="0 0 512 512" style="enable-background:new 0 0 512 512;" xml:space="preserve">
<g>
	<rect x="128.51" y="345.243" style="fill:#F07057;" width="254.98" height="89.243"/>
	<rect x="10.199" y="345.243" style="fill:#F07057;" width="118.311" height="89.243"/>
	<rect x="383.49" y="345.243" style="fill:#F07057;" width="118.311" height="89.243"/>
	<rect x="10.199" y="167.267" style="fill:#F07057;" width="118.311" height="89.243"/>
	<rect x="128.51" y="167.267" style="fill:#F07057;" width="254.98" height="89.243"/>
	<rect x="383.49" y="167.267" style="fill:#F07057;" width="118.311" height="89.243"/>
	<rect x="10.199" y="77.514" style="fill:#F07057;" width="245.801" height="89.753"/>
	<rect x="256" y="77.514" style="fill:#F07057;" width="245.801" height="89.753"/>
	<rect x="256" y="256.51" style="fill:#F07057;" width="245.801" height="88.733"/>
	<rect x="10.199" y="256.51" style="fill:#F07057;" width="245.801" height="88.733"/>
</g>
<path d="M10.199,67.315C4.567,67.315,0,71.881,0,77.514v356.972c0,5.633,4.567,10.199,10.199,10.199h491.602
	c5.632,0,10.199-4.566,10.199-10.199V77.514c0-5.633-4.567-10.199-10.199-10.199H10.199z M491.602,266.709v68.335H266.199v-68.335
	H491.602z M20.398,335.044v-68.335h225.402v68.335H20.398z M138.709,246.311v-68.845h234.582v68.845H138.709z M491.602,177.466
	v68.845h-97.912v-68.845H491.602z M118.311,246.311H20.398v-68.845h97.912V246.311z M266.199,157.068V87.713h225.402v69.355H266.199
	z M20.398,157.068V87.713h225.402v69.355H20.398z M20.398,355.442h97.912v68.845H20.398V355.442z M373.291,355.442v68.845H138.709
	v-68.845H373.291z M491.602,424.287h-97.912v-68.845h97.912V424.287z"/>
<path d="M355.952,396.749h-70.375c-5.632,0-10.199,4.566-10.199,10.199s4.567,10.199,10.199,10.199h70.375
	c5.632,0,10.199-4.566,10.199-10.199S361.584,396.749,355.952,396.749z"/>
<path d="M252.94,396.749h-8.159c-5.632,0-10.199,4.566-10.199,10.199s4.567,10.199,10.199,10.199h8.159
	c5.632,0,10.199-4.566,10.199-10.199S258.572,396.749,252.94,396.749z"/>
<g>
</g>
<g>
</g>
<g>
</g>
<g>
</g>
<g>
</g>
<g>
</g>
<g>
</g>
<g>
</g>
<g>
</g>
<g>
</g>
<g>
</g>
<g>
</g>
<g>
</g>
<g>
</g>
<g>
</g>
</svg>
